<?xml version="1.0" standalone="no"?>
<!DOCTYPE svg PUBLIC "-//W3C//DTD SVG 20010904//EN"
 "http://www.w3.org/TR/2001/REC-SVG-20010904/DTD/svg10.dtd">
<svg version="1.0" xmlns="http://www.w3.org/2000/svg"
 width="271.000000pt" height="72.000000pt" viewBox="0 0 271.000000 72.000000"
 preserveAspectRatio="xMidYMid meet">

<g transform="translate(0.000000,72.000000) scale(0.100000,-0.100000)"
fill="#000000" stroke="none">
<path d="M250 460 l0 -50 -55 0 -55 0 0 -70 c0 -41 -6 -86 -15 -107 -14 -32
-14 -39 -1 -51 20 -20 34 -8 49 46 l14 47 88 3 c52 2 92 -1 99 -8 5 -5 18 -10
28 -10 16 0 18 9 18 75 l0 75 -60 0 c-47 0 -60 3 -60 15 0 12 15 15 75 15 68
0 75 2 75 20 0 18 -7 20 -74 20 -56 0 -75 4 -80 15 -3 8 -15 15 -26 15 -17 0
-20 -6 -20 -50z m130 -115 c0 -25 0 -25 -95 -25 -95 0 -95 0 -95 25 0 25 0 25
95 25 95 0 95 0 95 -25z"/>
<path d="M1691 433 c-14 -91 -45 -150 -101 -190 -22 -15 -40 -31 -40 -34 0 -3
9 -14 19 -23 19 -17 21 -16 63 23 25 22 53 56 64 76 10 19 21 35 24 35 3 0 17
-22 32 -49 15 -27 43 -61 62 -76 l36 -27 20 23 c18 22 18 25 2 34 -9 6 -36 29
-58 51 -47 48 -74 115 -74 186 0 40 -3 48 -19 48 -16 0 -20 -12 -30 -77z"/>
<path d="M2110 495 c0 -11 -12 -15 -50 -15 -38 0 -50 -4 -50 -15 0 -11 12 -15
50 -15 28 0 50 -4 50 -10 0 -5 -20 -10 -45 -10 l-45 0 0 -70 c0 -63 2 -70 20
-70 11 0 20 5 20 10 0 15 48 12 53 -2 3 -10 9 -10 26 0 21 12 51 16 51 6 0 -3
-6 -12 -14 -20 -10 -10 -39 -14 -95 -14 -65 0 -81 -3 -81 -15 0 -9 9 -15 25
-15 17 0 23 -4 19 -14 -8 -21 31 -40 46 -22 9 11 7 17 -7 25 -14 8 -7 10 35
11 46 0 53 -3 50 -17 -2 -11 -14 -19 -31 -21 -41 -5 -28 -26 18 -30 41 -4 55
8 55 46 0 15 6 22 20 22 27 0 25 26 -2 35 -14 4 -18 8 -10 12 8 3 12 28 12 74
l0 69 -46 0 c-27 0 -43 4 -39 10 3 6 28 10 56 10 37 0 49 4 49 15 0 8 -6 15
-14 15 -7 0 -19 6 -26 14 -12 15 -44 10 -34 -5 3 -5 -4 -9 -15 -9 -12 0 -21 7
-21 15 0 8 -7 15 -15 15 -8 0 -15 -7 -15 -15z m0 -105 c0 -5 -11 -10 -25 -10
-14 0 -25 5 -25 10 0 6 11 10 25 10 14 0 25 -4 25 -10z m90 0 c0 -5 -13 -10
-30 -10 -16 0 -30 5 -30 10 0 6 14 10 30 10 17 0 30 -4 30 -10z m-90 -50 c0
-5 -11 -10 -25 -10 -14 0 -25 5 -25 10 0 6 11 10 25 10 14 0 25 -4 25 -10z
m85 0 c-3 -5 -15 -10 -25 -10 -10 0 -22 5 -25 10 -4 6 7 10 25 10 18 0 29 -4
25 -10z"/>
<path d="M2419 503 c-1 -5 -1 -11 0 -15 0 -5 -30 -8 -69 -8 l-70 0 0 -40 c0
-33 3 -40 20 -40 13 0 20 7 20 20 0 19 7 20 115 20 79 0 115 -4 115 -11 0 -8
-25 -10 -87 -6 -79 5 -90 3 -114 -16 -14 -12 -35 -27 -45 -33 -31 -19 -5 -38
30 -23 22 11 29 10 42 -3 15 -14 12 -16 -27 -23 -24 -3 -52 -9 -61 -11 -22 -7
-12 -34 13 -34 17 0 19 -8 19 -60 0 -53 2 -60 20 -60 11 0 20 5 20 10 0 6 33
10 80 10 47 0 80 -4 80 -10 0 -5 9 -10 20 -10 18 0 20 7 20 60 0 52 2 60 19
60 16 0 31 18 31 36 0 2 -15 4 -32 5 -18 1 -43 4 -56 7 -22 7 -22 8 12 40 19
17 41 32 50 32 12 0 16 10 16 40 l0 40 -64 0 c-48 0 -65 4 -70 15 -5 15 -45
21 -47 8z m49 -139 c-25 -13 -31 -13 -55 0 -28 15 -27 15 27 15 54 0 55 0 28
-15z m37 -69 c39 -12 37 -13 -60 -13 -94 0 -98 0 -65 13 44 17 74 17 125 0z
m13 -62 c3 -10 -17 -13 -77 -13 -75 0 -92 6 -74 24 12 12 146 2 151 -11z"/>
<path d="M620 480 c0 -18 -7 -20 -70 -20 -63 0 -70 -2 -70 -20 0 -18 7 -20 56
-20 40 0 55 -4 52 -12 -4 -13 -84 -71 -110 -81 -10 -3 -9 -9 4 -22 16 -17 18
-17 50 3 19 12 43 30 53 42 27 30 35 25 35 -25 0 -38 3 -45 20 -45 17 0 20 7
20 45 0 50 8 55 35 25 10 -12 34 -30 53 -42 34 -21 35 -21 48 -3 12 17 10 21
-29 43 -48 27 -77 51 -77 64 0 4 25 8 55 8 48 0 55 2 55 20 0 18 -7 20 -70 20
-63 0 -70 2 -70 20 0 13 -7 20 -20 20 -13 0 -20 -7 -20 -20z"/>
<path d="M864 486 c-3 -7 -4 -35 -2 -62 l3 -49 68 -3 c89 -4 87 -22 -3 -22
l-70 0 0 -52 c0 -29 -7 -66 -15 -82 -14 -26 -14 -30 2 -42 16 -11 20 -9 33 14
15 29 17 34 19 57 0 8 10 15 21 15 28 0 27 -40 0 -47 -32 -8 -17 -28 21 -28
19 0 40 -4 47 -9 8 -4 22 -2 35 7 19 12 25 12 54 -5 40 -24 67 -17 84 23 10
26 10 32 -2 40 -21 13 -26 11 -32 -11 -3 -11 -12 -20 -21 -20 -23 0 -20 15 10
45 21 21 23 29 14 40 -10 12 -9 15 9 15 14 0 21 6 21 20 0 13 -7 20 -19 20
-11 0 -23 5 -26 10 -3 6 1 10 9 10 13 0 16 13 16 65 l0 65 -135 0 c-106 0
-137 -3 -141 -14z m231 -26 c4 -6 -28 -10 -89 -10 -57 0 -96 4 -96 10 0 6 36
10 89 10 50 0 93 -4 96 -10z m0 -50 c-3 -5 -46 -10 -96 -10 -53 0 -89 4 -89
10 0 6 39 10 96 10 61 0 93 -4 89 -10z m-15 -50 c0 -5 -9 -10 -20 -10 -11 0
-20 5 -20 10 0 6 9 10 20 10 11 0 20 -4 20 -10z m-62 -90 c9 -35 8 -42 -8 -50
-26 -14 -26 -14 -22 30 l4 40 -46 0 c-25 0 -46 5 -46 10 0 6 24 10 54 10 l54
0 10 -40z m72 15 c-18 -19 -26 -22 -32 -13 -16 26 -8 38 24 38 l31 0 -23 -25z"/>
<path d="M1305 454 c-21 -25 -55 -57 -76 -71 -32 -21 -37 -28 -28 -44 16 -30
35 -23 100 41 l62 61 33 -40 c31 -36 102 -88 107 -80 2 2 8 11 15 20 11 14 6
22 -38 53 -27 19 -60 51 -72 71 -32 48 -57 45 -103 -11z"/>
<path d="M1940 455 c0 -33 -4 -45 -15 -45 -8 0 -15 -9 -15 -20 0 -11 7 -20 15
-20 12 0 15 -18 15 -100 0 -93 1 -100 20 -100 19 0 20 7 20 100 0 60 4 100 10
100 6 0 10 9 10 20 0 11 -4 20 -10 20 -5 0 -10 20 -10 45 0 38 -3 45 -20 45
-17 0 -20 -7 -20 -45z"/>
<path d="M1340 265 c0 -98 1 -105 20 -105 19 0 20 7 20 105 0 98 -1 105 -20
105 -19 0 -20 -7 -20 -105z"/>
<path d="M751 261 c-12 -8 -12 -14 0 -47 15 -40 26 -49 47 -35 11 7 10 16 -7
50 -12 22 -22 41 -24 41 -1 0 -8 -4 -16 -9z"/>
<path d="M497 224 c-18 -37 -15 -54 9 -54 14 0 22 14 38 68 13 39 -28 28 -47
-14z"/>
<path d="M585 254 c-6 -2 -9 -22 -7 -44 3 -30 9 -40 21 -40 26 0 28 6 22 47
-6 36 -16 46 -36 37z"/>
<path d="M664 229 c3 -17 6 -35 6 -40 0 -5 11 -9 24 -9 23 0 23 2 14 40 -8 30
-15 40 -30 40 -18 0 -20 -5 -14 -31z"/>
</g>
</svg>
